<svg width="40" height="40" viewBox="0 0 40 40" fill="none" xmlns="http://www.w3.org/2000/svg">
<g clip-path="url(#clip0_2_50)" filter="url(#filter0_d_2_50)">
<path d="M19.9375 30C27.704 30 34 23.704 34 15.9375C34 8.171 27.704 1.875 19.9375 1.875C12.171 1.875 5.875 8.171 5.875 15.9375C5.875 23.704 12.171 30 19.9375 30Z" fill="white" stroke="#363F46" stroke-width="2.42578" stroke-linecap="round"/>
<path d="M12.303 9.99902C12.303 9.99902 10.3584 12.1928 10.3584 16.0258C10.3584 19.8588 12.303 21.9642 12.303 21.9642" fill="white"/>
<path d="M12.303 9.99902C12.303 9.99902 10.3584 12.1928 10.3584 16.0258C10.3584 19.8588 12.303 21.9642 12.303 21.9642" stroke="#FC7E0F" stroke-width="2.42578" stroke-linecap="round"/>
<path d="M27.7959 9.99902C27.7959 9.99902 29.7405 12.1928 29.7405 16.0258C29.7405 19.8588 27.7959 21.9642 27.7959 21.9642" fill="white"/>
<path d="M27.7959 9.99902C27.7959 9.99902 29.7405 12.1928 29.7405 16.0258C29.7405 19.8588 27.7959 21.9642 27.7959 21.9642" stroke="#FC7E0F" stroke-width="2.42578" stroke-linecap="round"/>
<path d="M24.6943 12.5625C24.6943 12.5625 26.0042 14.1938 25.972 16.0179C25.9318 18.2116 24.7104 19.417 24.7104 19.417" fill="white"/>
<path d="M24.6943 12.5625C24.6943 12.5625 26.0042 14.1938 25.972 16.0179C25.9318 18.2116 24.7104 19.417 24.7104 19.417" stroke="#FC7E0F" stroke-width="2.42578" stroke-linecap="round"/>
<path d="M15.3408 12.5625C15.3408 12.5625 14.0309 14.1938 14.0631 16.0179C14.1033 18.2116 15.3247 19.417 15.3247 19.417" fill="white"/>
<path d="M15.3408 12.5625C15.3408 12.5625 14.0309 14.1938 14.0631 16.0179C14.1033 18.2116 15.3247 19.417 15.3247 19.417" stroke="#FC7E0F" stroke-width="2.42578" stroke-linecap="round"/>
<path d="M19.9358 18.1206C21.1413 18.1206 22.1186 17.1433 22.1186 15.9377C22.1186 14.7322 21.1413 13.7549 19.9358 13.7549C18.7302 13.7549 17.7529 14.7322 17.7529 15.9377C17.7529 17.1433 18.7302 18.1206 19.9358 18.1206Z" fill="#363F46"/>
<path d="M20.3047 17.9767L18.7562 17.5605L16.1777 27.1924L17.7262 27.6085L20.3047 17.9767Z" fill="#363F46"/>
<path d="M19.7051 17.964L21.2467 17.5547L23.8116 27.1934L22.2699 27.6027L19.7051 17.964Z" fill="#363F46"/>
<path d="M18.2725 23.1618L18.8455 22.5752L22.8155 26.4429L22.2425 27.0296L18.2725 23.1618Z" fill="#363F46"/>
<path d="M21.6351 23.1825L21.1166 22.6572L17.1807 26.5659L17.6991 27.0912L21.6351 23.1825Z" fill="#363F46"/>
</g>
<defs>
<filter id="filter0_d_2_50" x="0" y="0" width="40" height="40" filterUnits="userSpaceOnUse" color-interpolation-filters="sRGB">
<feFlood flood-opacity="0" result="BackgroundImageFix"/>
<feColorMatrix in="SourceAlpha" type="matrix" values="0 0 0 0 0 0 0 0 0 0 0 0 0 0 0 0 0 0 127 0" result="hardAlpha"/>
<feOffset dy="4"/>
<feGaussianBlur stdDeviation="2"/>
<feComposite in2="hardAlpha" operator="out"/>
<feColorMatrix type="matrix" values="0 0 0 0 0 0 0 0 0 0 0 0 0 0 0 0 0 0 0.25 0"/>
<feBlend mode="normal" in2="BackgroundImageFix" result="effect1_dropShadow_2_50"/>
<feBlend mode="normal" in="SourceGraphic" in2="effect1_dropShadow_2_50" result="shape"/>
</filter>
<clipPath id="clip0_2_50">
<rect width="32" height="32" fill="white" transform="translate(4)"/>
</clipPath>
</defs>
</svg>
